<svg xmlns="http://www.w3.org/2000/svg" viewBox="0 0 111.6 12"><g id="レイヤー_2" data-name="レイヤー 2"><g id="レイヤー_1-2" data-name="レイヤー 1"><path d="M0,7.2V6H3.6V4.8H4.8V6H9.6V7.2H4.8V8.4H3.6v2.4H8.4V12H3.6V10.8H2.4V8.4H3.6V7.2ZM1.2,2.4V1.2H8.4V2.4H7.2V3.6H6V4.8H4.8V3.6H6V2.4Z"/><path d="M12,9.6H10.8V6H12Zm3.6-2.4V3.6H14.4V4.8H13.2V6H12V4.8h1.2V3.6h1.2V2.4h4.8V3.6h1.2V4.8H19.2V3.6H16.8V7.2Zm-1.2,3.6H12V9.6h2.4Zm0-1.2V7.2h1.2V9.6ZM16.8,12V10.8h2.4V12Zm2.4-1.2V9.6h1.2v1.2Zm1.2-1.2V4.8h1.2V9.6Z"/><path d="M22.8,6V4.8H24V3.6h1.2V12H24V6Zm2.4-2.4V1.2h1.2V3.6Zm1.2,3.6V6h1.2V2.4h1.2V4.8H30V0h1.2V3.6h1.2V2.4h1.2V7.2H32.4V4.8H31.2V8.4H30V6H28.8v4.8h3.6V9.6h1.2V12h-6V7.2Z"/><path d="M36,9.6H34.8V6H36Zm3.6-2.4V3.6H38.4V4.8H37.2V6H36V4.8h1.2V3.6h1.2V2.4h4.8V3.6h1.2V4.8H43.2V3.6H40.8V7.2Zm-1.2,3.6H36V9.6h2.4Zm0-1.2V7.2h1.2V9.6ZM40.8,12V10.8h2.4V12Zm2.4-1.2V9.6h1.2v1.2Zm1.2-1.2V4.8h1.2V9.6Z"/><path d="M46.8,6V4.8H48V3.6h1.2V12H48V6Zm3.6-2.4H49.2V1.2h1.2Zm3.6,6V12H52.8V3.6H51.6V6H50.4V3.6h1.2V0h1.2V2.4h4.8V3.6H54V4.8h3.6V6H54V8.4h3.6V9.6Z"/><path d="M63.6,12H58.8V7.2h4.8ZM60,10.8h2.4V8.4H60ZM67.2,6h-6V1.2h6ZM62.4,4.8H66V2.4H62.4ZM69.6,12H64.8V7.2h4.8ZM66,10.8h2.4V8.4H66Z"/><path d="M72,9.6H70.8v-6H72Zm0-6V1.2h1.2V3.6Zm1.2,6V12H72V9.6Zm1.2-4.8V3.6H78V0h1.2V3.6h2.4V4.8H79.2V8.4h1.2V9.6h1.2v1.2H80.4V9.6H79.2v1.2H78V12H75.6V10.8H78V8.4H75.6v2.4H74.4V8.4h1.2V7.2H78V4.8Z"/><path d="M84,10.8H82.8V8.4H84Zm0-7.2V2.4h6V3.6Zm0,4.8V7.2h1.2V8.4ZM90,12H84V10.8h6Zm0-1.2V9.6h1.2v1.2Z"/><path d="M91.2,4.8V3.6h3.6V0H96V3.6h1.2V4.8H96V6h3.6V7.2h1.2V9.6H99.6v1.2H98.4V9.6h1.2V7.2H96V8.4H93.6V6h1.2V7.2H96V6H94.8V4.8ZM94.8,12V10.8h3.6V12ZM102,3.6H97.2V2.4H102Z"/><path d="M105.6,8.4h-2.4V4.8h1.2V7.2h1.2Zm-1.2-6V1.2h2.4V2.4h2.4V3.6h-2.4V2.4Zm0,9.6V10.8h4.8V12Zm6-4.8h-4.8V6h4.8Zm-1.2,3.6V9.6h1.2v1.2Zm1.2-1.2V7.2h1.2V9.6Z"/></g></g></svg>