<svg xmlns="http://www.w3.org/2000/svg" viewBox="0 0 138 12"><defs><style>.cls-1{fill:#fff;}</style></defs><g id="レイヤー_2" data-name="レイヤー 2"><g id="レイヤー_1-2" data-name="レイヤー 1"><path class="cls-1" d="M6,7.2V12H4.8V8.4H3.6V12H2.4V8.4H1.2V12H0V7.2H2.4V6H0V1.2H1.2V2.4H2.4V0H3.6V2.4H6V3.6H3.6V4.8H7.2V2.4H8.4V9.6H7.2V6H3.6V7.2ZM2.4,4.8V3.6H1.2V4.8Zm6,7.2V10.8H9.6V1.2h1.2V12Z"/><path class="cls-1" d="M12,6V4.8h1.2V3.6h1.2V12H13.2V6Zm3.6-2.4H14.4V1.2h1.2Zm3.6,6V12H18V3.6H16.8V6H15.6V3.6h1.2V0H18V2.4h4.8V3.6H19.2V4.8h3.6V6H19.2V8.4h3.6V9.6Z"/><path class="cls-1" d="M24,9.6V8.4h2.4V4.8H25.2V7.2H24v-6h1.2V3.6h1.2V1.2h1.2V3.6h1.2V0H30V2.4h4.8v8.4H33.6V3.6H32.4V7.2H31.2V9.6H30V12H28.8V9.6H30V7.2h1.2V3.6H30V7.2H28.8V8.4H27.6V12H26.4V9.6Zm4.8-2.4V4.8H27.6V7.2ZM31.2,12V10.8h2.4V12Z"/><path class="cls-1" d="M37.2,9.6H36V6h1.2Zm3.6-2.4V3.6H39.6V4.8H38.4V6H37.2V4.8h1.2V3.6h1.2V2.4h4.8V3.6h1.2V4.8H44.4V3.6H42V7.2Zm-1.2,3.6H37.2V9.6h2.4Zm0-1.2V7.2h1.2V9.6ZM42,12V10.8h2.4V12Zm2.4-1.2V9.6h1.2v1.2Zm1.2-1.2V4.8h1.2V9.6Z"/><path class="cls-1" d="M48,10.8V9.6h1.2V7.2H48V6h1.2V4.8H48V3.6h1.2V2.4H48V1.2h4.8V3.6h6V4.8H56.4V6h2.4V7.2H56.4V8.4h2.4V9.6H56.4V12H55.2V9.6H52.8V12H49.2V10.8Zm3.6-7.2V2.4H50.4V3.6ZM54,7.2V6h1.2V4.8H52.8V7.2H50.4V8.4h4.8V7.2ZM51.6,6V4.8H50.4V6Zm0,4.8V9.6H50.4v1.2ZM55.2,0V2.4H54V0Zm1.2,2.4V1.2h1.2V2.4Zm1.2-1.2V0h1.2V1.2Z"/><path class="cls-1" d="M60,4.8V3.6h2.4V0h1.2V4.8h1.2V6H63.6v6H62.4V8.4H61.2V7.2h1.2V4.8Zm0,4.8V8.4h1.2V9.6Zm4.8-4.8V3.6H66V4.8Zm3.6-1.2H66V2.4h2.4Zm0,7.2H67.2V7.2h1.2Zm0-3.6V3.6h1.2V7.2ZM70.8,12H68.4V10.8h2.4Z"/><path class="cls-1" d="M70.8,4.8V3.6h3.6V0h1.2V3.6h1.2V4.8H78v6H76.8v-6H74.4V8.4H73.2v2.4H72V8.4h1.2V4.8ZM74.4,12V10.8h2.4V12Zm2.4-9.6V1.2H78V2.4h1.2V3.6H78V2.4Zm2.4-1.2V0h1.2V1.2h1.2V2.4H80.4V1.2Zm1.2,6H79.2V4.8h1.2Zm1.2,0V9.6H80.4V7.2Z"/><path class="cls-1" d="M82.8,3.6V2.4h3.6V0h1.2V2.4h6V3.6h-6V4.8h3.6V6h1.2V7.2h1.2V9.6H92.4v1.2H91.2V9.6h1.2V7.2H91.2V6H90V7.2H88.8V9.6H87.6v1.2H84V9.6h1.2V7.2H84V9.6H82.8V7.2H84V6h1.2V4.8h1.2V3.6Zm4.8,6V7.2h1.2V6H86.4V9.6ZM88.8,12V10.8h2.4V12Z"/><path class="cls-1" d="M97.2,8.4H94.8V4.8H96V7.2h1.2ZM96,2.4V1.2h2.4V2.4h2.4V3.6H98.4V2.4ZM96,12V10.8h4.8V12Zm6-4.8H97.2V6H102Zm-1.2,3.6V9.6H102v1.2ZM102,9.6V7.2h1.2V9.6Z"/><path class="cls-1" d="M104.4,4.8V3.6h2.4V0H108V4.8h1.2V6H108v6h-1.2V8.4h-1.2V7.2h1.2V4.8Zm0,4.8V8.4h1.2V9.6Zm4.8-4.8V3.6h1.2V4.8Zm3.6-1.2h-2.4V2.4h2.4ZM110.4,12V10.8h2.4V12ZM114,4.8h-1.2V3.6H114Zm-1.2,6V9.6H114v1.2ZM114,9.6V4.8h1.2V9.6Z"/><path class="cls-1" d="M116.4,4.8V3.6h2.4V0H120V4.8h1.2V6H120v6h-1.2V8.4h-1.2V7.2h1.2V4.8Zm0,4.8V8.4h1.2V9.6Zm4.8-4.8V3.6h1.2V4.8Zm3.6-1.2h-2.4V2.4h2.4Zm0,7.2h-1.2V7.2h1.2Zm0-3.6V3.6H126V7.2Zm2.4,4.8h-2.4V10.8h2.4Z"/><path class="cls-1" d="M127.2,3.6V2.4h3.6V0H132V2.4h3.6V3.6H132V6h-1.2V9.6h-1.2V12h-1.2V9.6h1.2V6h1.2V3.6Zm6,2.4V4.8H138V6Zm1.2,4.8h-1.2V8.4h1.2Zm0-2.4V7.2h1.2V8.4ZM138,12h-3.6V10.8H138Z"/></g></g></svg>