<svg xmlns="http://www.w3.org/2000/svg" viewBox="0 0 52.8 21.47"><defs><style>.cls-1{fill:#fff;}</style></defs><g id="レイヤー_2" data-name="レイヤー 2"><g id="レイヤー_1-2" data-name="レイヤー 1"><path class="cls-1" d="M0,2.4V1.2H1.2V2.4H2.4V3.6H1.2V2.4ZM0,6V4.8H1.2V6H2.4V7.2H1.2V6Zm0,6V10.8H1.2V12Zm1.2-1.2V9.6H2.4v1.2ZM3.6,3.6V2.4H7.2V0H8.4V2.4H9.6V1.2h1.2V3.6H8.4V4.8h2.4V12H9.6V10.8H8.4V12H7.2V10.8H4.8V12H3.6V4.8H7.2V3.6ZM4.8,7.2H7.2V6H4.8Zm0,2.4H7.2V8.4H4.8ZM9.6,7.2V6H8.4V7.2Zm0,2.4V8.4H8.4V9.6Z"/><path class="cls-1" d="M22.8,12H18V9.6H13.2V12H12V9.6h1.2V1.2h9.6V4.8H19.2V6h3.6V7.2H19.2V8.4h3.6V9.6H19.2v1.2h3.6ZM14.4,3.6h7.2V2.4H14.4Zm0,2.4H18V4.8H14.4Zm0,2.4H18V7.2H14.4Z"/><path class="cls-1" d="M24,2.4V1.2h1.2V0h2.4V1.2H26.4V2.4Z"/><path class="cls-1" d="M27.6,7.2V6h1.2V7.2h2.4V8.4h1.2V9.6H31.2V8.4H28.8V7.2Zm0,3.6V9.6h3.6v1.2ZM32.4,6H28.8V4.8h3.6Z"/><path class="cls-1" d="M1.2,19.07v2.4H0v-8.4H3.6v1.2H4.8v3.6H3.6v1.2Zm0-1.2H3.6v-3.6H1.2Z"/><path class="cls-1" d="M7.2,20.27H6v-6H7.2Zm2.4-6H7.2v-1.2H9.6Zm0,7.2H7.2v-1.2H9.6Zm0-1.2v-6h1.2v6Z"/><path class="cls-1" d="M13.2,17.87v3.6H12v-8.4h3.6v1.2h1.2v2.4H15.6v1.2Zm0-1.2h2.4v-2.4H13.2Zm3.6,1.2v3.6H15.6v-3.6Z"/><path class="cls-1" d="M18,14.27v-1.2h6v1.2H21.6v7.2H20.4v-7.2Z"/><path class="cls-1" d="M26.4,17.87v3.6H25.2v-8.4H30v1.2H26.4v2.4h2.4v1.2Z"/><path class="cls-1" d="M32.4,20.27H31.2v-6h1.2Zm2.4-6H32.4v-1.2h2.4Zm0,7.2H32.4v-1.2h2.4Zm0-1.2v-6H36v6Z"/><path class="cls-1" d="M42,21.47H37.2v-8.4h1.2v7.2H42Z"/><path class="cls-1" d="M43.2,21.47v-1.2h1.2v-6H43.2v-1.2h3.6v1.2H45.6v6h1.2v1.2Z"/><path class="cls-1" d="M49.2,20.27H48v-6h1.2Zm2.4-6H49.2v-1.2h2.4Zm0,7.2H49.2v-1.2h2.4Zm0-1.2v-6h1.2v6Z"/></g></g></svg>